<!DOCTYPE svg PUBLIC "-//W3C//DTD SVG 1.1//EN" "http://www.w3.org/Graphics/SVG/1.1/DTD/svg11.dtd">
<!-- Uploaded to: SVG Repo, www.svgrepo.com, Transformed by: SVG Repo Mixer Tools -->
<svg fill="#B80100" height="800px" width="800px" version="1.1" id="Layer_1" xmlns="http://www.w3.org/2000/svg" xmlns:xlink="http://www.w3.org/1999/xlink" viewBox="0 0 512 512" xml:space="preserve">
<g id="SVGRepo_bgCarrier" stroke-width="0"/>
<g id="SVGRepo_tracerCarrier" stroke-linecap="round" stroke-linejoin="round"/>
<g id="SVGRepo_iconCarrier"> <g> <g> <path d="M126.372,190.915c-38.28,0-69.424,31.144-69.424,69.424c0,38.28,31.144,69.424,69.424,69.424 c38.279,0,69.424-31.144,69.424-69.424C195.796,222.059,164.65,190.915,126.372,190.915z M126.372,312.407 c-28.712,0-52.549-23.356-52.549-52.068c0-25.754,19.044-47.186,42.909-51.33v16.619c0,4.797,3.886,8.678,8.678,8.678 c4.792,0,8.678-3.881,8.678-8.678v-16.619c26.034,4.144,43.871,25.576,43.871,51.33 C177.959,289.051,155.083,312.407,126.372,312.407z"/> </g> </g> <g> <g> <path d="M134.088,156.593V34.424c0-4.797-3.886-8.678-8.678-8.678c-4.792,0-8.678,3.881-8.678,8.678v122.169 c-52.068,4.428-94.977,49.248-94.977,103.746c0,57.424,46.955,104.136,104.375,104.136c57.421,0,103.775-46.712,103.775-104.136 C229.906,205.841,188.325,161.021,134.088,156.593z M126.372,347.119c-47.852,0-86.78-38.932-86.78-86.78 s38.928-86.78,86.78-86.78c47.851,0,86.78,38.932,86.78,86.78S174.222,347.119,126.372,347.119z"/> </g> </g> <g> <g> <path d="M368.393,251.983V8.678c0-4.797-3.886-8.678-8.678-8.678s-8.678,3.881-8.678,8.678v243.305 c-67.254,4.485-121.011,60.987-121.011,129.847c0,71.78,58.634,130.169,130.41,130.169s129.808-58.39,129.808-130.169 C490.245,312.97,437.817,256.468,368.393,251.983z M360.677,494.644c-62.209,0-112.814-50.61-112.814-112.814 c0-62.203,50.605-112.814,112.814-112.814c62.208,0,112.814,50.61,112.814,112.814 C473.491,444.034,422.885,494.644,360.677,494.644z"/> </g> </g> <g> <g> <path d="M360.677,286.373c-52.637,0-95.458,42.822-95.458,95.458c0,52.636,42.821,95.458,95.458,95.458 c52.636,0,95.458-42.822,95.458-95.458C456.135,329.195,413.313,286.373,360.677,286.373z M360.677,459.932 c-43.065,0-78.583-35.034-78.583-78.102c0-40.133,29.892-73.275,68.943-77.608v16.862c0,4.797,3.886,8.678,8.678,8.678 s8.678-3.881,8.678-8.678v-16.862c39.051,4.332,69.905,37.474,69.905,77.608C438.298,424.898,403.741,459.932,360.677,459.932z"/> </g> </g> </g>
</svg>