<!DOCTYPE svg PUBLIC "-//W3C//DTD SVG 1.1//EN" "http://www.w3.org/Graphics/SVG/1.1/DTD/svg11.dtd">
<!-- Uploaded to: SVG Repo, www.svgrepo.com, Transformed by: SVG Repo Mixer Tools -->
<svg fill="#B80100" height="800px" width="800px" version="1.1" id="Capa_1" xmlns="http://www.w3.org/2000/svg" xmlns:xlink="http://www.w3.org/1999/xlink" viewBox="0 0 419.255 419.255" xml:space="preserve">
<g id="SVGRepo_bgCarrier" stroke-width="0"/>
<g id="SVGRepo_tracerCarrier" stroke-linecap="round" stroke-linejoin="round"/>
<g id="SVGRepo_iconCarrier"> <path d="M320.63,162.829c22.715,0,41.195-18.481,41.195-41.198c0-22.715-18.48-41.196-41.195-41.196 c-22.719,0-41.203,18.48-41.203,41.196C279.428,144.347,297.911,162.829,320.63,162.829z M320.63,98.435 c12.79,0,23.195,10.406,23.195,23.196c0,12.792-10.405,23.198-23.195,23.198c-12.794,0-23.203-10.407-23.203-23.198 C297.428,108.841,307.836,98.435,320.63,98.435z M419.255,329.82c0,4.971-4.029,9-9,9H9c-4.971,0-9-4.029-9-9s4.029-9,9-9h401.255 C415.226,320.82,419.255,324.849,419.255,329.82z M57.599,154.679c0.267,1.338,0.829,2.568,1.616,3.621 c0.753,1.009,1.722,1.868,2.867,2.498c0.567,0.313,1.172,0.567,1.806,0.753l51.054,16.297l83.146,114.255 c0.122,0.171,0.249,0.337,0.381,0.499c0.819,1.001,1.815,1.784,2.91,2.334c1.068,0.539,2.258,0.872,3.518,0.946 c0.18,0.011,0.36,0.016,0.541,0.016c0.036,0,0.072,0,0.108,0h30.516c3.143,0,6.059-1.64,7.691-4.326l29.817-49.06l66.035,18.173 c3.554,0.979,7.345-0.311,9.568-3.25c2.223-2.94,2.428-6.939,0.517-10.091l-42.304-69.802c-1.63-2.69-4.546-4.333-7.691-4.335 c-0.001,0-0.003,0-0.005,0c-3.143,0-6.059,1.64-7.691,4.326l-26.753,44.02l-19.679-5.416l0.559-7.902 c0.068-0.74,0.043-1.476-0.067-2.192c-0.206-1.341-0.709-2.591-1.446-3.677c-0.735-1.085-1.709-2.017-2.877-2.705 c-0.625-0.369-1.299-0.665-2.013-0.876L126.03,162.491l-16.099-22.122l158.744,41.197c4.813,1.248,9.724-1.64,10.972-6.451 c1.249-4.811-1.64-9.724-6.451-10.972L97.1,118.444v-16.776c0-4.971-4.029-9-9-9s-9,4.029-9,9v12.104l-10.513-2.729 c-0.436-0.124-0.885-0.215-1.345-0.271c-1.052-0.132-2.094-0.076-3.088,0.149c-1.343,0.3-2.572,0.901-3.614,1.727 c-1.001,0.792-1.84,1.8-2.438,2.978c-0.465,0.913-0.778,1.917-0.908,2.975c-0.058,0.467-0.079,0.931-0.064,1.39l0.294,32.796 C57.415,153.427,57.475,154.062,57.599,154.679z M299.679,199.552l22.894,37.776l-39.282-10.811L299.679,199.552z M227.685,213.836 l-0.582,8.219c-0.072,0.792-0.037,1.577,0.096,2.337c0.232,1.344,0.765,2.594,1.531,3.672c0.755,1.065,1.745,1.972,2.918,2.632 c0.679,0.383,1.415,0.682,2.194,0.88l21.683,5.968L231,277.897h-20.987l-66.073-90.793L227.685,213.836z M82.486,133.247 l14.545,19.987l-21.665-6.916l-0.134-14.954L82.486,133.247z"/> </g>
</svg>